HIERARCHY
ROOT root
{
	OFFSET	0	13.1	24.9
	CHANNELS 6  Xposition Yposition Zposition Xrotation Yrotation Zrotation
	JOINT spine_1
	{
		OFFSET	0	9.99999	0
		CHANNELS 3  Xrotation Yrotation Zrotation
		JOINT spine_2
		{
			OFFSET	0	112	-10
			CHANNELS 3  Xrotation Yrotation Zrotation
			JOINT spine_3
			{
				OFFSET	0	206.5	19.3
				CHANNELS 3  Xrotation Yrotation Zrotation
				JOINT spine_4
				{
					OFFSET	0	110.4	14.6
					CHANNELS 3  Xrotation Yrotation Zrotation
					JOINT neck_1
					{
						OFFSET	0	71.8	-50.3
						CHANNELS 3  Xrotation Yrotation Zrotation
						JOINT neck_2
						{
							OFFSET	0	86.2	-25.8
							CHANNELS 3  Xrotation Yrotation Zrotation
							JOINT head_ee
							{
								OFFSET	0	179.8	-8.7
								CHANNELS 3  Xrotation Yrotation Zrotation
								End Site
								{
									OFFSET	1	0	0
								}
							}
						}
					}
					JOINT left_clavicle
					{
						OFFSET	-43.2	22.4	-70.8
						CHANNELS 3  Xrotation Yrotation Zrotation
						JOINT left_shoulder
						{
							OFFSET	-93.9	-5.79999	48.7
							CHANNELS 3  Xrotation Yrotation Zrotation
							JOINT left_elbow
							{
								OFFSET	-291.4	-30.8	15.2
								CHANNELS 3  Xrotation Yrotation Zrotation
								JOINT left_lowarm_twist
								{
									OFFSET	-110.7	-3.89999	13.6
									CHANNELS 3  Xrotation Yrotation Zrotation
									JOINT left_hand
									{
										OFFSET	-110.7	-3.89999	13.6
										CHANNELS 3  Xrotation Yrotation Zrotation
										JOINT left_ee
										{
											OFFSET	-80.8	-5.10001	12.1
											CHANNELS 3  Xrotation Yrotation Zrotation
											End Site
											{
												OFFSET	1	0	0
											}
										}
									}
								}
							}
						}
					}
					JOINT right_clavicle
					{
						OFFSET	43.2	22.4	-70.8
						CHANNELS 3  Xrotation Yrotation Zrotation
						JOINT right_shoulder
						{
							OFFSET	93.9	-5.79999	48.7
							CHANNELS 3  Xrotation Yrotation Zrotation
							JOINT right_elbow
							{
								OFFSET	291.4	-30.8	15.2
								CHANNELS 3  Xrotation Yrotation Zrotation
								JOINT right_lowarm_twist
								{
									OFFSET	110.7	-3.89999	13.6
									CHANNELS 3  Xrotation Yrotation Zrotation
									JOINT right_hand
									{
										OFFSET	110.7	-3.89999	13.6
										CHANNELS 3  Xrotation Yrotation Zrotation
										JOINT right_ee
										{
											OFFSET	80.8	-5.10001	12.1
											CHANNELS 3  Xrotation Yrotation Zrotation
											End Site
											{
												OFFSET	1	0	0
											}
										}
									}
								}
							}
						}
					}
				}
			}
		}
	}
	JOINT left_hip
	{
		OFFSET	-82.8	-127.5	0.300001
		CHANNELS 3  Xrotation Yrotation Zrotation
		JOINT left_knee
		{
			OFFSET	-28.2	-396.7	2.2
			CHANNELS 3  Xrotation Yrotation Zrotation
			JOINT left_ankle
			{
				OFFSET	-11.7	-411.3	35.4
				CHANNELS 3  Xrotation Yrotation Zrotation
				JOINT left_toes
				{
					OFFSET	0	-60	-88.6
					CHANNELS 3  Xrotation Yrotation Zrotation
					JOINT left_foot_ee
					{
						OFFSET	-22.5	-16.5	-42.2
						CHANNELS 3  Xrotation Yrotation Zrotation
						End Site
						{
							OFFSET	1	0	0
						}
					}
				}
			}
		}
	}
	JOINT right_hip
	{
		OFFSET	82.8	-127.5	0.300001
		CHANNELS 3  Xrotation Yrotation Zrotation
		JOINT right_knee
		{
			OFFSET	28.2	-396.7	2.2
			CHANNELS 3  Xrotation Yrotation Zrotation
			JOINT right_ankle
			{
				OFFSET	11.7	-411.3	35.4
				CHANNELS 3  Xrotation Yrotation Zrotation
				JOINT right_toes
				{
					OFFSET	0	-60	-88.6
					CHANNELS 3  Xrotation Yrotation Zrotation
					JOINT right_foot_ee
					{
						OFFSET	22.5	-16.5	-42.2
						CHANNELS 3  Xrotation Yrotation Zrotation
						End Site
						{
							OFFSET	1	0	0
						}
					}
				}
			}
		}
	}
}
MOTION
Frames: 12
Frame Time: 0.02
3400.49 731.911 -1538.84 -15.5036 63.4309 11.2126 2.57697 0.914231 1.61127 2.57805 0.809864 1.66616 2.60162 0.523096 1.77714 2.5981 0.79716 1.67227 -9.79675 19.0954 1.20189 -10.2389 35.1841 6.13953 -0.0 0.0 -0.0 -2.54295 23.5829 -0.745087 -25.9576 -14.6833 66.6614 1.21978 -31.141 0.339904 -25.4559 -1.55327 2.83305 -2.16957 9.88583 -9.8601 -0.0 0.0 -0.0 14.1544 27.498 -28.1696 12.1034 15.7099 -67.6399 0.562188 15.5622 -0.076822 5.97736 -0.171925 0.743823 1.47098 14.2523 -3.82771 0.0 0.0 0.0 29.8159 12.3807 -6.31321 -49.9851 -1.22087 7.3346 33.3266 17.5388 -4.32343 -17.6013 0.0 0.0 -0.0 0.0 -0.0 22.6157 -17.0229 5.86095 -33.2012 0.0917994 -5.02382 39.3169 6.14237 4.89043 -3.77681 0.0 0.0 0.0 0.0 0.0 
3394.09 737.097 -1533.94 -14.4619 63.0206 10.4703 2.45474 1.04082 1.59575 2.45567 0.937183 1.65872 2.48295 0.646244 1.79219 2.47965 0.921138 1.66769 -10.3585 18.8281 0.86818 -10.8815 34.9806 5.94109 -0.0 0.0 -0.0 -2.31435 23.7118 -0.409265 -26.9205 -14.6531 67.3408 1.09936 -28.5715 0.279941 -25.326 -1.54226 2.82056 -1.98557 9.39063 -8.90374 -0.0 0.0 -0.0 13.7949 28.1344 -27.2447 15.0496 16.8798 -68.4686 0.541123 15.0059 -0.0712692 5.44055 -0.159669 0.676345 1.63017 13.2403 -5.34872 0.0 0.0 0.0 31.0939 12.6577 -6.80091 -45.1577 -0.827062 6.7047 29.9235 17.8435 -3.96168 -18.4795 0.0 0.0 -0.0 0.0 -0.0 23.2092 -21.0192 7.44619 -34.052 0.13234 -5.14806 38.8632 8.93377 4.90332 -3.73905 0.0 0.0 0.0 0.0 0.0 
3387.53 732.598 -1532.43 -13.7746 62.9111 9.76439 2.38167 1.03579 1.59945 2.38261 0.931931 1.6621 2.40982 0.638207 1.79546 2.40648 0.913718 1.67218 -10.5481 18.5053 0.0306667 -11.0991 34.9415 5.11197 -0.0 0.0 -0.0 -2.47143 23.6943 -0.626847 -28.054 -14.6283 68.2122 0.977089 -25.8275 0.224035 -25.2672 -1.53729 2.8149 -1.72526 9.2905 -7.26033 -0.0 0.0 -0.0 13.8408 28.0564 -27.3621 17.0978 18.1782 -69.1654 0.593238 16.3768 -0.085365 4.77807 -0.143673 0.593231 1.886 13.2725 -7.06489 0.0 0.0 0.0 31.6805 12.3666 -7.74846 -42.0354 -0.601308 6.28083 27.5416 17.9579 -3.69417 -19.5218 0.0 0.0 -0.0 0.0 -0.0 24.0635 -24.4478 9.39831 -34.7948 0.169242 -5.25603 36.9724 12.9641 4.82828 -4.34043 0.0 0.0 0.0 0.0 0.0 
3378.32 731.346 -1531.38 -13.2881 62.3243 9.12725 2.39921 1.18565 1.65392 2.40009 1.07802 1.72599 2.4328 0.772278 1.88272 2.42942 1.05988 1.73719 -11.1673 18.283 -0.422758 -11.8103 34.8852 4.83238 -0.0 0.0 -0.0 -2.44072 24.0342 -0.523203 -28.9712 -14.5224 68.1982 0.895208 -23.9151 0.189593 -25.194 -1.53111 2.80785 -1.60339 8.96267 -6.62369 -0.0 0.0 -0.0 13.9762 28.1589 -27.6625 18.6897 18.5607 -70.2279 0.585676 16.179 -0.0832454 4.6528 -0.140541 0.577535 1.94555 13.2696 -7.46976 0.0 0.0 0.0 33.1013 12.3407 -8.56411 -39.4986 -0.435177 5.92798 25.717 18.0574 -3.48262 -20.1661 0.0 0.0 -0.0 0.0 -0.0 24.0912 -26.0851 10.0738 -34.9908 0.179214 -5.28445 37.427 14.121 4.90437 -4.15035 0.0 0.0 0.0 0.0 0.0 
3369.2 733.472 -1533.89 -11.8239 62.0289 7.85117 2.3348 1.1548 1.65079 2.33571 1.04744 1.72091 2.36742 0.740825 1.87341 2.364 1.02736 1.73297 -12.314 18.2512 -0.233595 -13.1333 34.8235 5.41442 -0.0 0.0 -0.0 -2.53125 23.8704 -0.676102 -30.2164 -14.3018 68.8265 0.830846 -22.3708 0.164295 -24.4212 -1.46639 2.73287 -1.22674 8.69867 -4.30537 -0.0 0.0 -0.0 14.1551 28.5647 -28.021 18.6244 19.5346 -69.8497 0.852098 22.8846 -0.172471 4.07515 -0.125651 0.505248 2.40738 14.186 -10.1933 0.0 0.0 0.0 34.1124 11.3296 -9.53983 -36.357 -0.251415 5.48154 22.0062 18.5152 -3.03782 -21.696 0.0 0.0 -0.0 0.0 -0.0 22.2126 -25.1037 10.5062 -34.7683 0.167904 -5.2522 37.695 15.9204 4.98644 -4.49011 0.0 0.0 0.0 0.0 0.0 
3355.69 730.04 -1532.69 -11.589 62.1903 7.65882 2.45171 1.20393 1.61416 2.45249 1.09879 1.68747 2.48508 0.800924 1.84752 2.48195 1.08261 1.6979 -13.3191 18.0919 -0.466103 -14.2908 34.7543 5.50464 -0.0 0.0 -0.0 -2.72863 24.2025 -0.88156 -31.7475 -14.1008 69.2693 0.780082 -21.1279 0.145483 -23.9687 -1.42897 2.68857 -1.10731 8.6408 -3.55905 -0.0 0.0 -0.0 14.2891 28.6328 -28.3231 19.7316 20.4674 -69.4245 0.954773 25.3122 -0.214403 3.67881 -0.115013 0.455737 2.62572 14.6408 -11.473 0.0 0.0 0.0 34.7811 10.8879 -9.88356 -34.0297 -0.131257 5.14482 19.6538 18.6641 -2.74268 -22.3177 0.0 0.0 -0.0 0.0 -0.0 21.2886 -26.0435 11.3927 -34.0907 0.134227 -5.15369 37.5262 17.1924 5.01456 -4.35524 0.0 0.0 0.0 0.0 0.0 
3345.77 727.359 -1530.11 -11.1798 62.0864 7.20444 2.43361 1.21794 1.64376 2.43442 1.11089 1.7179 2.46798 0.807205 1.87977 2.46471 1.09391 1.72876 -13.9893 18.0776 -0.381653 -15.0649 34.7296 5.82256 -0.0 0.0 -0.0 -2.66796 23.9726 -0.842901 -32.4236 -14.0219 69.6302 0.746775 -20.301 0.133702 -23.6258 -1.40085 2.65481 -0.960758 8.58191 -2.63816 -0.0 0.0 -0.0 14.3786 28.6652 -28.5271 20.5965 21.3231 -69.3089 1.11075 28.8202 -0.285409 3.39495 -0.107183 0.420323 2.84418 15.1576 -12.7257 0.0 0.0 0.0 35.5257 10.2511 -9.97148 -32.0076 -0.0380502 4.84856 17.928 18.8308 -2.52137 -22.962 0.0 0.0 -0.0 0.0 -0.0 20.4712 -25.9755 11.6615 -33.4487 0.103401 -5.06002 37.3894 18.3281 5.04353 -4.45499 0.0 0.0 0.0 0.0 0.0 
3338.17 726.368 -1527.9 -11.4804 62.8026 7.27973 2.54303 1.07488 1.84539 2.54441 0.955293 1.91002 2.57632 0.625408 2.04192 2.57174 0.939985 1.9176 -14.9631 18.3373 0.355778 -16.2029 34.8677 6.96769 -0.0 0.0 -0.0 -2.69346 23.9974 -0.872848 -33.4392 -13.8593 69.9193 0.710837 -19.3986 0.121498 -23.5429 -1.39409 2.64663 -0.866579 8.87481 -1.90172 -0.0 0.0 -0.0 13.9654 27.6481 -27.7082 21.5978 22.1567 -69.1083 1.35357 33.8408 -0.41179 3.30546 -0.104679 0.409166 3.05425 16.2699 -13.6332 0.0 0.0 0.0 36.9608 9.51121 -10.5826 -28.8399 0.0867505 4.37852 16.2985 19.0847 -2.3092 -23.5523 0.0 0.0 -0.0 0.0 -0.0 19.4743 -25.7084 12.1472 -31.0766 -0.00132698 -4.71113 37.8333 23.0848 5.29347 -3.93509 0.0 0.0 0.0 0.0 0.0 
3331.5 724.726 -1525.53 -14.5101 63.3612 10.6182 2.68075 0.983149 1.99807 2.68256 0.854042 2.05655 2.71309 0.506392 2.16845 2.70752 0.842431 2.06133 -13.0845 17.9489 -1.7325 -14.0419 35.2365 4.18501 -0.0 0.0 -0.0 -2.64019 23.6243 -0.870501 -33.9565 -13.8304 70.017 0.690094 -18.8732 0.114698 -23.4261 -1.38458 2.63508 -0.777116 9.33378 -1.12589 -0.0 0.0 -0.0 13.6156 27.4037 -26.9275 21.7114 23.245 -69.3763 1.63647 39.0272 -0.579975 3.11286 -0.0992291 0.385167 3.22474 16.7705 -14.5596 0.0 0.0 0.0 37.9529 8.98295 -11.159 -22.6668 0.254439 3.44646 15.828 19.1905 -2.24747 -23.7179 0.0 0.0 -0.0 0.0 -0.0 19.1317 -25.8249 12.0322 -29.8633 -0.049279 -4.53111 37.1009 26.3708 5.39592 -4.59767 0.0 0.0 0.0 0.0 0.0 
3320.5 723.057 -1521.66 -17.2234 64.324 13.5622 2.74435 0.86552 2.05045 2.74639 0.733321 2.10134 2.77302 0.382181 2.19253 2.76704 0.723577 2.10472 -12.7921 17.5637 -1.73891 -13.6554 34.4884 3.92581 -0.0 0.0 -0.0 -2.65062 23.4807 -0.911751 -34.3658 -14.1458 71.0009 0.636694 -17.5054 0.0980281 -23.2562 -1.37077 2.61824 -0.718309 9.17227 -0.817636 -0.0 0.0 -0.0 13.8456 26.0186 -27.6396 22.4489 23.1119 -68.5375 1.79716 41.6735 -0.684044 3.24613 -0.103009 0.401771 3.23072 16.9083 -14.5329 0.0 0.0 0.0 38.3993 8.65578 -11.1557 -14.3257 0.320067 2.16944 13.1348 18.9895 -1.88238 -24.0825 0.0 0.0 -0.0 0.0 -0.0 19.4943 -24.3789 11.2015 -29.8519 -0.0497088 -4.52942 36.3896 24.0185 5.19645 -5.61434 0.0 0.0 0.0 0.0 0.0 
3307.79 717.149 -1520.63 -20.9101 64.9875 17.0488 3.05183 0.797213 2.29462 3.05452 0.649627 2.34066 3.08035 0.27362 2.41364 3.07281 0.651272 2.3402 -11.1763 16.5099 -2.75939 -11.7116 33.0285 2.03039 -0.0 0.0 -0.0 -2.43804 23.3058 -0.651711 -35.7074 -15.4697 69.9856 0.504034 -14.0194 0.0619745 -23.2079 -1.36686 2.61344 -0.576711 8.9098 -0.0188101 -0.0 0.0 -0.0 13.8932 26.277 -27.7187 22.8489 24.0464 -67.7401 2.10101 46.139 -0.894917 2.82832 -0.0910303 0.349745 3.22613 16.4866 -14.7089 0.0 0.0 0.0 38.7931 8.20519 -11.0098 -7.51872 0.235764 1.12899 8.36062 18.843 -1.2167 -24.2801 0.0 0.0 -0.0 0.0 -0.0 19.1883 -24.5539 11.286 -27.9016 -0.118701 -4.23807 36.7227 27.312 5.41243 -6.31669 0.0 0.0 0.0 0.0 0.0 
3294.94 711.612 -1518.8 -23.1041 65.3293 19.0954 3.29298 0.707594 2.4047 3.29603 0.55319 2.44482 3.31856 0.172325 2.50066 3.31028 0.564977 2.44213 -9.52153 15.8927 -3.60456 -9.78829 32.3171 0.480109 -0.0 0.0 -0.0 -2.58969 22.108 -1.08316 -35.5546 -15.1467 70.6594 0.438497 -12.2555 0.0470769 -22.9836 -1.34873 2.59113 -0.496944 8.85192 0.470497 -0.0 0.0 -0.0 13.6148 26.5625 -27.034 22.8278 24.8171 -67.7028 2.29034 48.6004 -1.03425 2.84596 -0.0915436 0.35194 3.24971 16.6178 -14.8067 0.0 0.0 0.0 39.0801 7.88573 -10.8777 -2.24081 0.0857557 0.333175 2.75026 17.7976 -0.405255 -25.1416 0.0 0.0 -0.0 0.0 -0.0 17.7606 -19.8033 10.863 -26.5176 -0.161619 -4.03001 37.5577 29.8127 5.65923 -6.61583 0.0 0.0 0.0 0.0 0.0 
